# MagicaVoxel @ Ephtracy

# group
o 

# material
mtllib NESCartridge.mtl
usemtl palette

# normals
vn -1 0 0
vn 1 0 0
vn 0 0 1
vn 0 0 -1
vn 0 -1 0
vn 0 1 0

# texcoords
vt 0.0449219 0.5
vt 0.0566406 0.5
vt 0.208984 0.5
vt 0.267578 0.5
vt 0.279297 0.5
vt 0.345703 0.5
vt 0.384766 0.5
vt 0.427734 0.5
vt 0.728516 0.5
vt 0.736328 0.5
vt 0.919922 0.5
vt 0.958984 0.5
vt 0.974609 0.5
vt 0.982422 0.5
vt 0.986328 0.5
vt 0.994141 0.5

# verts
v -0.8 0.4 0.2
v -0.8 0.4 0
v -0.8 1.6 0.2
v -0.8 1.6 0
v -0.7 0 0.2
v -0.7 0 0
v -0.7 0.4 0.2
v -0.7 0.4 0
v -0.2 1.4 0.2
v -0.2 1.4 0.1
v -0.2 1.5 0.2
v -0.2 1.5 0.1
v -0.2 1.6 0.2
v -0.2 1.6 0.1
v -0.5 1.4 0.2
v -0.5 1.4 0.1
v -0.5 1.5 0.2
v -0.5 1.5 0.1
v -0.5 1.6 0.2
v -0.5 1.6 0.1
v 0.7 0 0.2
v 0.7 0 0
v 0.7 0.4 0.2
v 0.7 0.4 0
v 0.8 0.4 0.2
v 0.8 0.4 0
v 0.8 1.6 0.2
v 0.8 1.6 0
v -0.8 0.4 0.2
v -0.8 1.6 0.2
v -0.7 0 0.2
v -0.7 0.4 0.2
v -0.7 1.5 0.2
v -0.6 0.1 0.2
v -0.6 0.4 0.2
v -0.5 0.1 0.2
v -0.5 0.2 0.2
v -0.5 0.3 0.2
v -0.5 0.4 0.2
v -0.5 0.5 0.2
v -0.5 0.6 0.2
v -0.5 0.7 0.2
v -0.5 0.8 0.2
v -0.5 0.9 0.2
v -0.5 1 0.2
v -0.5 1.1 0.2
v -0.5 1.2 0.2
v -0.5 1.3 0.2
v -0.5 1.4 0.2
v -0.5 1.5 0.2
v -0.5 1.6 0.2
v -0.2 0.1 0.2
v -0.2 0.2 0.2
v -0.2 0.3 0.2
v -0.2 0.4 0.2
v -0.2 0.5 0.2
v -0.2 0.6 0.2
v -0.2 0.7 0.2
v -0.2 0.8 0.2
v -0.2 0.9 0.2
v -0.2 1 0.2
v -0.2 1.1 0.2
v -0.2 1.2 0.2
v -0.2 1.3 0.2
v -0.2 1.4 0.2
v -0.2 1.5 0.2
v -0.2 1.6 0.2
v -0.1 0.4 0.2
v -0.1 0.5 0.2
v -0.1 0.6 0.2
v -0.1 1.1 0.2
v -0.1 1.2 0.2
v -0.1 1.3 0.2
v -0.1 1.4 0.2
v -0.1 1.5 0.2
v -0.1 1.6 0.2
v 0 0.4 0.2
v 0 0.5 0.2
v 0 0.7 0.2
v 0 0.8 0.2
v 0 0.9 0.2
v 0 1 0.2
v 0 1.1 0.2
v 0 1.2 0.2
v 0 1.3 0.2
v 0 1.4 0.2
v 0 1.5 0.2
v 0 1.6 0.2
v 0.1 0.7 0.2
v 0.1 0.8 0.2
v 0.1 1.3 0.2
v 0.1 1.4 0.2
v 0.2 0.7 0.2
v 0.2 0.8 0.2
v 0.2 0.9 0.2
v 0.2 1 0.2
v 0.2 1.1 0.2
v 0.2 1.2 0.2
v 0.2 1.3 0.2
v 0.2 1.4 0.2
v 0.2 1.5 0.2
v 0.2 1.6 0.2
v 0.3 0.7 0.2
v 0.3 0.9 0.2
v 0.3 1 0.2
v 0.3 1.1 0.2
v 0.3 1.2 0.2
v 0.3 1.3 0.2
v 0.3 1.4 0.2
v 0.3 1.5 0.2
v 0.3 1.6 0.2
v 0.4 1.3 0.2
v 0.4 1.4 0.2
v 0.4 1.5 0.2
v 0.4 1.6 0.2
v 0.5 0.6 0.2
v 0.5 0.7 0.2
v 0.5 0.9 0.2
v 0.5 1 0.2
v 0.5 1.1 0.2
v 0.5 1.2 0.2
v 0.5 1.3 0.2
v 0.5 1.4 0.2
v 0.5 1.5 0.2
v 0.5 1.6 0.2
v 0.6 0.1 0.2
v 0.6 0.4 0.2
v 0.7 0 0.2
v 0.7 0.4 0.2
v 0.7 1.5 0.2
v 0.8 0.4 0.2
v 0.8 1.6 0.2
v -0.5 1.4 0.1
v -0.5 1.5 0.1
v -0.5 1.6 0.1
v -0.2 1.4 0.1
v -0.2 1.5 0.1
v -0.2 1.6 0.1
v -0.8 0.4 0
v -0.8 1.6 0
v -0.7 0 0
v -0.7 0.4 0
v -0.7 1.5 0
v -0.6 0.1 0
v -0.6 0.4 0
v -0.5 0.4 0
v -0.5 0.8 0
v -0.4 0.5 0
v -0.4 0.6 0
v -0.2 0.7 0
v -0.2 0.8 0
v -0.1 0.4 0
v -0.1 0.5 0
v 0.1 0.4 0
v 0.1 0.5 0
v 0.2 0.7 0
v 0.2 0.8 0
v 0.4 0.5 0
v 0.4 0.6 0
v 0.5 0.4 0
v 0.5 0.8 0
v 0.6 0.1 0
v 0.6 0.4 0
v 0.7 0 0
v 0.7 0.4 0
v 0.7 1.5 0
v 0.8 0.4 0
v 0.8 1.6 0
v -0.7 0 0.2
v 0.7 0 0.2
v -0.7 0 0
v 0.7 0 0
v -0.8 0.4 0.2
v -0.7 0.4 0.2
v 0.7 0.4 0.2
v 0.8 0.4 0.2
v -0.8 0.4 0
v -0.7 0.4 0
v 0.7 0.4 0
v 0.8 0.4 0
v -0.5 1.4 0.2
v -0.2 1.4 0.2
v -0.5 1.4 0.1
v -0.2 1.4 0.1
v -0.8 1.6 0.2
v -0.5 1.6 0.2
v -0.2 1.6 0.2
v -0.1 1.6 0.2
v 0 1.6 0.2
v 0.2 1.6 0.2
v 0.3 1.6 0.2
v 0.4 1.6 0.2
v 0.5 1.6 0.2
v 0.8 1.6 0.2
v -0.5 1.6 0.1
v -0.2 1.6 0.1
v -0.1 1.6 0.1
v 0 1.6 0.1
v 0.2 1.6 0.1
v 0.3 1.6 0.1
v 0.4 1.6 0.1
v 0.5 1.6 0.1
v -0.8 1.6 0
v 0.8 1.6 0

# faces
f 3/15/1 2/15/1 1/15/1
f 4/15/1 2/15/1 3/15/1
f 7/15/1 6/15/1 5/15/1
f 8/15/1 6/15/1 7/15/1
f 11/14/1 10/14/1 9/14/1
f 12/14/1 10/14/1 11/14/1
f 13/15/1 12/15/1 11/15/1
f 14/15/1 12/15/1 13/15/1
f 15/14/2 16/14/2 17/14/2
f 17/14/2 16/14/2 18/14/2
f 17/15/2 18/15/2 19/15/2
f 19/15/2 18/15/2 20/15/2
f 21/15/2 22/15/2 23/15/2
f 23/15/2 22/15/2 24/15/2
f 25/15/2 26/15/2 27/15/2
f 27/15/2 26/15/2 28/15/2
f 32/15/3 30/15/3 29/15/3
f 33/15/3 30/15/3 32/15/3
f 34/15/3 32/15/3 31/15/3
f 35/14/3 33/14/3 32/14/3
f 35/15/3 32/15/3 34/15/3
f 36/15/3 34/15/3 31/15/3
f 36/14/3 35/14/3 34/14/3
f 37/14/3 35/14/3 36/14/3
f 38/14/3 35/14/3 37/14/3
f 39/14/3 33/14/3 35/14/3
f 39/14/3 35/14/3 38/14/3
f 40/14/3 33/14/3 39/14/3
f 41/14/3 33/14/3 40/14/3
f 42/14/3 33/14/3 41/14/3
f 43/14/3 33/14/3 42/14/3
f 44/14/3 33/14/3 43/14/3
f 45/14/3 33/14/3 44/14/3
f 46/14/3 33/14/3 45/14/3
f 47/14/3 33/14/3 46/14/3
f 48/14/3 33/14/3 47/14/3
f 49/14/3 33/14/3 48/14/3
f 50/15/3 30/15/3 33/15/3
f 50/14/3 33/14/3 49/14/3
f 51/15/3 30/15/3 50/15/3
f 52/15/3 36/15/3 31/15/3
f 52/13/3 37/13/3 36/13/3
f 53/15/3 38/15/3 37/15/3
f 53/13/3 37/13/3 52/13/3
f 54/13/3 39/13/3 38/13/3
f 54/15/3 38/15/3 53/15/3
f 55/15/3 40/15/3 39/15/3
f 55/13/3 39/13/3 54/13/3
f 56/13/3 41/13/3 40/13/3
f 56/15/3 40/15/3 55/15/3
f 57/15/3 42/15/3 41/15/3
f 57/13/3 41/13/3 56/13/3
f 58/13/3 43/13/3 42/13/3
f 58/15/3 42/15/3 57/15/3
f 59/15/3 44/15/3 43/15/3
f 59/13/3 43/13/3 58/13/3
f 60/13/3 45/13/3 44/13/3
f 60/15/3 44/15/3 59/15/3
f 61/15/3 46/15/3 45/15/3
f 61/13/3 45/13/3 60/13/3
f 62/13/3 47/13/3 46/13/3
f 62/15/3 46/15/3 61/15/3
f 63/15/3 48/15/3 47/15/3
f 63/13/3 47/13/3 62/13/3
f 64/13/3 49/13/3 48/13/3
f 64/15/3 48/15/3 63/15/3
f 65/13/3 49/13/3 64/13/3
f 68/14/3 63/14/3 62/14/3
f 68/14/3 62/14/3 61/14/3
f 68/14/3 66/14/3 65/14/3
f 68/14/3 65/14/3 64/14/3
f 68/14/3 64/14/3 63/14/3
f 68/14/3 61/14/3 60/14/3
f 68/14/3 60/14/3 59/14/3
f 68/14/3 59/14/3 58/14/3
f 68/14/3 58/14/3 57/14/3
f 68/14/3 57/14/3 56/14/3
f 68/14/3 56/14/3 55/14/3
f 68/14/3 55/14/3 54/14/3
f 68/14/3 54/14/3 53/14/3
f 68/14/3 53/14/3 52/14/3
f 69/14/3 66/14/3 68/14/3
f 70/14/3 66/14/3 69/14/3
f 71/14/3 66/14/3 70/14/3
f 72/14/3 66/14/3 71/14/3
f 73/14/3 66/14/3 72/14/3
f 74/14/3 66/14/3 73/14/3
f 75/15/3 67/15/3 66/15/3
f 75/14/3 66/14/3 74/14/3
f 76/15/3 67/15/3 75/15/3
f 77/14/3 68/14/3 52/14/3
f 77/15/3 69/15/3 68/15/3
f 78/14/3 70/14/3 69/14/3
f 78/15/3 69/15/3 77/15/3
f 79/16/3 71/16/3 70/16/3
f 80/16/3 71/16/3 79/16/3
f 81/16/3 71/16/3 80/16/3
f 82/16/3 71/16/3 81/16/3
f 83/4/3 72/4/3 71/4/3
f 83/16/3 71/16/3 82/16/3
f 84/2/3 73/2/3 72/2/3
f 84/4/3 72/4/3 83/4/3
f 85/6/3 74/6/3 73/6/3
f 85/2/3 73/2/3 84/2/3
f 86/5/3 75/5/3 74/5/3
f 86/6/3 74/6/3 85/6/3
f 87/16/3 76/16/3 75/16/3
f 87/5/3 75/5/3 86/5/3
f 88/16/3 76/16/3 87/16/3
f 89/16/3 79/16/3 70/16/3
f 89/8/3 80/8/3 79/8/3
f 90/1/3 81/1/3 80/1/3
f 90/8/3 80/8/3 89/8/3
f 91/12/3 86/12/3 85/12/3
f 91/12/3 85/12/3 84/12/3
f 92/6/3 87/6/3 86/6/3
f 92/12/3 86/12/3 91/12/3
f 93/7/3 90/7/3 89/7/3
f 93/16/3 89/16/3 70/16/3
f 94/1/3 81/1/3 90/1/3
f 94/7/3 90/7/3 93/7/3
f 95/3/3 82/3/3 81/3/3
f 95/1/3 81/1/3 94/1/3
f 96/16/3 84/16/3 83/16/3
f 96/3/3 82/3/3 95/3/3
f 96/16/3 83/16/3 82/16/3
f 97/16/3 84/16/3 96/16/3
f 98/12/3 91/12/3 84/12/3
f 98/16/3 84/16/3 97/16/3
f 99/11/3 92/11/3 91/11/3
f 99/12/3 91/12/3 98/12/3
f 100/6/3 87/6/3 92/6/3
f 100/11/3 92/11/3 99/11/3
f 101/12/3 88/12/3 87/12/3
f 101/6/3 87/6/3 100/6/3
f 102/12/3 88/12/3 101/12/3
f 103/16/3 95/16/3 94/16/3
f 103/16/3 93/16/3 70/16/3
f 103/16/3 94/16/3 93/16/3
f 103/16/3 96/16/3 95/16/3
f 104/16/3 96/16/3 103/16/3
f 105/3/3 97/3/3 96/3/3
f 105/16/3 96/16/3 104/16/3
f 106/16/3 98/16/3 97/16/3
f 106/3/3 97/3/3 105/3/3
f 107/4/3 99/4/3 98/4/3
f 107/16/3 98/16/3 106/16/3
f 108/16/3 100/16/3 99/16/3
f 108/4/3 99/4/3 107/4/3
f 109/2/3 102/2/3 101/2/3
f 109/16/3 100/16/3 108/16/3
f 109/2/3 101/2/3 100/2/3
f 110/2/3 102/2/3 109/2/3
f 111/2/3 102/2/3 110/2/3
f 112/16/3 108/16/3 107/16/3
f 112/10/3 109/10/3 108/10/3
f 113/9/3 110/9/3 109/9/3
f 113/10/3 109/10/3 112/10/3
f 114/10/3 111/10/3 110/10/3
f 114/9/3 110/9/3 113/9/3
f 115/10/3 111/10/3 114/10/3
f 116/14/3 70/14/3 78/14/3
f 116/16/3 103/16/3 70/16/3
f 116/14/3 78/14/3 77/14/3
f 117/7/3 104/7/3 103/7/3
f 117/16/3 103/16/3 116/16/3
f 118/16/3 105/16/3 104/16/3
f 118/7/3 104/7/3 117/7/3
f 119/8/3 106/8/3 105/8/3
f 119/16/3 105/16/3 118/16/3
f 120/3/3 107/3/3 106/3/3
f 120/8/3 106/8/3 119/8/3
f 121/16/3 112/16/3 107/16/3
f 121/3/3 107/3/3 120/3/3
f 122/9/3 113/9/3 112/9/3
f 122/16/3 112/16/3 121/16/3
f 123/10/3 114/10/3 113/10/3
f 123/9/3 113/9/3 122/9/3
f 124/9/3 115/9/3 114/9/3
f 124/10/3 114/10/3 123/10/3
f 125/9/3 115/9/3 124/9/3
f 126/15/3 52/15/3 31/15/3
f 126/14/3 77/14/3 52/14/3
f 126/14/3 123/14/3 122/14/3
f 126/14/3 124/14/3 123/14/3
f 126/14/3 120/14/3 119/14/3
f 126/14/3 121/14/3 120/14/3
f 126/14/3 117/14/3 116/14/3
f 126/14/3 119/14/3 118/14/3
f 126/14/3 116/14/3 77/14/3
f 126/14/3 122/14/3 121/14/3
f 126/14/3 118/14/3 117/14/3
f 127/14/3 124/14/3 126/14/3
f 128/15/3 126/15/3 31/15/3
f 128/15/3 127/15/3 126/15/3
f 129/14/3 124/14/3 127/14/3
f 129/15/3 127/15/3 128/15/3
f 130/15/3 125/15/3 124/15/3
f 130/14/3 124/14/3 129/14/3
f 131/15/3 130/15/3 129/15/3
f 132/15/3 125/15/3 130/15/3
f 132/15/3 130/15/3 131/15/3
f 136/14/3 134/14/3 133/14/3
f 137/15/3 135/15/3 134/15/3
f 137/14/3 134/14/3 136/14/3
f 138/15/3 135/15/3 137/15/3
f 139/15/4 140/15/4 142/15/4
f 142/15/4 140/15/4 143/15/4
f 141/15/4 142/15/4 144/15/4
f 142/14/4 143/14/4 145/14/4
f 144/15/4 142/15/4 145/15/4
f 144/14/4 145/14/4 146/14/4
f 145/14/4 143/14/4 146/14/4
f 146/14/4 143/14/4 147/14/4
f 146/15/4 147/15/4 148/15/4
f 148/15/4 147/15/4 149/15/4
f 149/15/4 147/15/4 150/15/4
f 147/14/4 143/14/4 151/14/4
f 150/15/4 147/15/4 151/15/4
f 144/14/4 146/14/4 152/14/4
f 146/15/4 148/15/4 152/15/4
f 148/12/4 149/12/4 153/12/4
f 152/15/4 148/15/4 153/15/4
f 144/14/4 152/14/4 154/14/4
f 152/12/4 153/12/4 154/12/4
f 153/12/4 149/12/4 155/12/4
f 154/12/4 153/12/4 155/12/4
f 149/15/4 150/15/4 156/15/4
f 150/12/4 151/12/4 156/12/4
f 151/14/4 143/14/4 157/14/4
f 156/12/4 151/12/4 157/12/4
f 155/12/4 149/12/4 158/12/4
f 154/15/4 155/15/4 158/15/4
f 149/15/4 156/15/4 159/15/4
f 158/12/4 149/12/4 159/12/4
f 156/15/4 157/15/4 159/15/4
f 154/15/4 158/15/4 160/15/4
f 144/14/4 154/14/4 160/14/4
f 158/15/4 159/15/4 160/15/4
f 159/15/4 157/15/4 161/15/4
f 160/15/4 159/15/4 161/15/4
f 157/14/4 143/14/4 161/14/4
f 141/15/4 144/15/4 162/15/4
f 144/14/4 160/14/4 162/14/4
f 160/14/4 161/14/4 162/14/4
f 162/14/4 161/14/4 163/14/4
f 141/15/4 162/15/4 164/15/4
f 162/15/4 163/15/4 164/15/4
f 163/14/4 161/14/4 165/14/4
f 164/15/4 163/15/4 165/15/4
f 143/15/4 140/15/4 166/15/4
f 165/14/4 161/14/4 166/14/4
f 161/14/4 143/14/4 166/14/4
f 165/15/4 166/15/4 167/15/4
f 166/15/4 140/15/4 168/15/4
f 167/15/4 166/15/4 168/15/4
f 171/15/5 170/15/5 169/15/5
f 172/15/5 170/15/5 171/15/5
f 177/15/5 174/15/5 173/15/5
f 178/15/5 174/15/5 177/15/5
f 179/15/5 176/15/5 175/15/5
f 180/15/5 176/15/5 179/15/5
f 181/13/6 182/13/6 183/13/6
f 183/13/6 182/13/6 184/13/6
f 185/15/6 186/15/6 195/15/6
f 187/15/6 188/15/6 196/15/6
f 188/16/6 189/16/6 197/16/6
f 196/15/6 188/15/6 197/15/6
f 189/12/6 190/12/6 198/12/6
f 197/16/6 189/16/6 198/16/6
f 190/2/6 191/2/6 199/2/6
f 198/12/6 190/12/6 199/12/6
f 191/10/6 192/10/6 200/10/6
f 199/2/6 191/2/6 200/2/6
f 192/9/6 193/9/6 201/9/6
f 200/10/6 192/10/6 201/10/6
f 193/15/6 194/15/6 202/15/6
f 201/9/6 193/9/6 202/9/6
f 200/15/6 201/15/6 203/15/6
f 185/15/6 195/15/6 203/15/6
f 201/15/6 202/15/6 203/15/6
f 195/15/6 196/15/6 203/15/6
f 199/15/6 200/15/6 203/15/6
f 198/15/6 199/15/6 203/15/6
f 197/15/6 198/15/6 203/15/6
f 196/15/6 197/15/6 203/15/6
f 202/15/6 194/15/6 204/15/6
f 203/15/6 202/15/6 204/15/6
